<?xml version="1.0" encoding="UTF-8"?>
<svg width="24px" height="24px" viewBox="0 0 24 24" version="1.1" xmlns="http://www.w3.org/2000/svg" xmlns:xlink="http://www.w3.org/1999/xlink">
    <!-- Generator: Sketch 52.1 (67048) - http://www.bohemiancoding.com/sketch -->
    <title>icon</title>
    <desc>Created with Sketch.</desc>
    <g id="Page-1" stroke="none" stroke-width="1" fill="none" fill-rule="evenodd">
        <g id="icon" fill="#FFFFFF" fill-rule="nonzero">
            <path d="M11.9828571,0 C5.36485714,0 0,5.36657143 0,11.9854286 C0,18.6034286 5.36485714,23.97 11.9828571,23.97 C18.6042857,23.97 23.97,18.6025714 23.97,11.9854286 C23.97,5.36657143 18.6042857,0 11.9828571,0 Z M17.136,15.2305714 L15.2271429,17.1368571 C15.2271429,17.1368571 12.2074286,13.8968571 11.982,13.8968571 C11.76,13.8968571 8.73942857,17.1368571 8.73942857,17.1368571 L6.82971429,15.2305714 C6.82971429,15.2305714 10.0731429,12.2545714 10.0731429,11.9897143 C10.0731429,11.7205714 6.82971429,8.74371429 6.82971429,8.74371429 L8.73942857,6.83314286 C8.73942857,6.83314286 11.7848571,10.0748571 11.982,10.0748571 C12.1808571,10.0748571 15.2271429,6.83314286 15.2271429,6.83314286 L17.136,8.74371429 C17.136,8.74371429 13.8917143,11.7634286 13.8917143,11.9897143 C13.8917143,12.2048571 17.136,15.2305714 17.136,15.2305714 Z" id="Shape"></path>
        </g>
    </g>
</svg>